<svg width="40" height="39" viewBox="0 0 40 39" fill="none" xmlns="http://www.w3.org/2000/svg">
<path d="M23.8281 19.5C23.8281 21.5614 22.1143 23.2324 20 23.2324C17.8857 23.2324 16.1719 21.5614 16.1719 19.5C16.1719 17.4386 17.8857 15.7676 20 15.7676C22.1143 15.7676 23.8281 17.4386 23.8281 19.5Z" fill="white"/>
<path d="M23.8281 19.5C23.8281 21.5614 22.1143 23.2324 20 23.2324C17.8857 23.2324 16.1719 21.5614 16.1719 19.5C16.1719 17.4386 17.8857 15.7676 20 15.7676C22.1143 15.7676 23.8281 17.4386 23.8281 19.5Z" fill="url(#paint0_linear)"/>
<path d="M28.9529 12.8962C28.7689 12.41 28.4753 11.9699 28.0938 11.6087C27.7233 11.2368 27.2723 10.9505 26.7733 10.7711C26.3687 10.6179 25.7607 10.4355 24.6411 10.3858C23.4298 10.3319 23.0667 10.3203 20.0002 10.3203C16.9335 10.3203 16.5704 10.3316 15.3594 10.3855C14.2397 10.4355 13.6315 10.6179 13.2272 10.7711C12.7282 10.9505 12.2769 11.2368 11.9067 11.6087C11.5252 11.9699 11.2316 12.4097 11.0473 12.8962C10.8901 13.2907 10.7031 13.8837 10.6521 14.9754C10.5969 16.1561 10.585 16.5102 10.585 19.5002C10.585 22.49 10.5969 22.844 10.6521 24.025C10.7031 25.1167 10.8901 25.7094 11.0473 26.104C11.2316 26.5904 11.5249 27.0302 11.9064 27.3914C12.2769 27.7634 12.7279 28.0496 13.2269 28.229C13.6315 28.3826 14.2397 28.565 15.3594 28.6147C16.5704 28.6685 16.9332 28.6798 19.9999 28.6798C23.067 28.6798 23.4301 28.6685 24.6407 28.6147C25.7604 28.565 26.3687 28.3826 26.7733 28.229C27.7749 27.8523 28.5665 27.0805 28.9529 26.104C29.11 25.7094 29.2971 25.1167 29.3484 24.025C29.4036 22.844 29.4152 22.49 29.4152 19.5002C29.4152 16.5102 29.4036 16.1561 29.3484 14.9754C29.2974 13.8837 29.1104 13.2907 28.9529 12.8962ZM20.0002 25.2497C16.7431 25.2497 14.1027 22.6756 14.1027 19.4999C14.1027 16.3242 16.7431 13.7501 20.0002 13.7501C23.2571 13.7501 25.8975 16.3242 25.8975 19.4999C25.8975 22.6756 23.2571 25.2497 20.0002 25.2497ZM26.1306 14.8665C25.3695 14.8665 24.7524 14.2649 24.7524 13.5228C24.7524 12.7807 25.3695 12.1791 26.1306 12.1791C26.8917 12.1791 27.5088 12.7807 27.5088 13.5228C27.5085 14.2649 26.8917 14.8665 26.1306 14.8665Z" fill="white"/>
<path d="M28.9529 12.8962C28.7689 12.41 28.4753 11.9699 28.0938 11.6087C27.7233 11.2368 27.2723 10.9505 26.7733 10.7711C26.3687 10.6179 25.7607 10.4355 24.6411 10.3858C23.4298 10.3319 23.0667 10.3203 20.0002 10.3203C16.9335 10.3203 16.5704 10.3316 15.3594 10.3855C14.2397 10.4355 13.6315 10.6179 13.2272 10.7711C12.7282 10.9505 12.2769 11.2368 11.9067 11.6087C11.5252 11.9699 11.2316 12.4097 11.0473 12.8962C10.8901 13.2907 10.7031 13.8837 10.6521 14.9754C10.5969 16.1561 10.585 16.5102 10.585 19.5002C10.585 22.49 10.5969 22.844 10.6521 24.025C10.7031 25.1167 10.8901 25.7094 11.0473 26.104C11.2316 26.5904 11.5249 27.0302 11.9064 27.3914C12.2769 27.7634 12.7279 28.0496 13.2269 28.229C13.6315 28.3826 14.2397 28.565 15.3594 28.6147C16.5704 28.6685 16.9332 28.6798 19.9999 28.6798C23.067 28.6798 23.4301 28.6685 24.6407 28.6147C25.7604 28.565 26.3687 28.3826 26.7733 28.229C27.7749 27.8523 28.5665 27.0805 28.9529 26.104C29.11 25.7094 29.2971 25.1167 29.3484 24.025C29.4036 22.844 29.4152 22.49 29.4152 19.5002C29.4152 16.5102 29.4036 16.1561 29.3484 14.9754C29.2974 13.8837 29.1104 13.2907 28.9529 12.8962ZM20.0002 25.2497C16.7431 25.2497 14.1027 22.6756 14.1027 19.4999C14.1027 16.3242 16.7431 13.7501 20.0002 13.7501C23.2571 13.7501 25.8975 16.3242 25.8975 19.4999C25.8975 22.6756 23.2571 25.2497 20.0002 25.2497ZM26.1306 14.8665C25.3695 14.8665 24.7524 14.2649 24.7524 13.5228C24.7524 12.7807 25.3695 12.1791 26.1306 12.1791C26.8917 12.1791 27.5088 12.7807 27.5088 13.5228C27.5085 14.2649 26.8917 14.8665 26.1306 14.8665Z" fill="url(#paint1_linear)"/>
<path d="M20 0C8.95599 0 0 8.73209 0 19.5C0 30.2679 8.95599 39 20 39C31.044 39 40 30.2679 40 19.5C40 8.73209 31.044 0 20 0ZM31.4151 24.1164C31.3596 25.3084 31.1652 26.1222 30.8813 26.8345C30.2847 28.3386 29.0652 29.5276 27.5226 30.1093C26.7923 30.386 25.9573 30.5753 24.7351 30.6297C23.5104 30.6842 23.1192 30.6973 20.0003 30.6973C16.8811 30.6973 16.4902 30.6842 15.2652 30.6297C14.043 30.5753 13.208 30.386 12.4777 30.1093C11.7111 29.8281 11.0172 29.3875 10.4434 28.8177C9.85931 28.2586 9.40735 27.5817 9.11896 26.8345C8.83514 26.1225 8.64075 25.3084 8.58521 24.1167C8.52875 22.9224 8.51562 22.5409 8.51562 19.5C8.51562 16.4591 8.52875 16.0776 8.5849 14.8836C8.64044 13.6916 8.83453 12.8778 9.11835 12.1655C9.40674 11.4183 9.85901 10.7414 10.4434 10.1823C11.0168 9.61253 11.7111 9.17187 12.4774 8.89069C13.208 8.61397 14.0427 8.42473 15.2652 8.37028C16.4899 8.31583 16.8811 8.30273 20 8.30273C23.1189 8.30273 23.5101 8.31583 24.7348 8.37057C25.9573 8.42473 26.792 8.61397 27.5226 8.89039C28.2889 9.17157 28.9832 9.61253 29.5569 10.1823C30.141 10.7417 30.5933 11.4183 30.8813 12.1655C31.1655 12.8778 31.3596 13.6916 31.4154 14.8836C31.4713 16.0776 31.4844 16.4591 31.4844 19.5C31.4844 22.5409 31.4713 22.9224 31.4151 24.1164Z" fill="white"/>
<path d="M20 0C8.95599 0 0 8.73209 0 19.5C0 30.2679 8.95599 39 20 39C31.044 39 40 30.2679 40 19.5C40 8.73209 31.044 0 20 0ZM31.4151 24.1164C31.3596 25.3084 31.1652 26.1222 30.8813 26.8345C30.2847 28.3386 29.0652 29.5276 27.5226 30.1093C26.7923 30.386 25.9573 30.5753 24.7351 30.6297C23.5104 30.6842 23.1192 30.6973 20.0003 30.6973C16.8811 30.6973 16.4902 30.6842 15.2652 30.6297C14.043 30.5753 13.208 30.386 12.4777 30.1093C11.7111 29.8281 11.0172 29.3875 10.4434 28.8177C9.85931 28.2586 9.40735 27.5817 9.11896 26.8345C8.83514 26.1225 8.64075 25.3084 8.58521 24.1167C8.52875 22.9224 8.51562 22.5409 8.51562 19.5C8.51562 16.4591 8.52875 16.0776 8.5849 14.8836C8.64044 13.6916 8.83453 12.8778 9.11835 12.1655C9.40674 11.4183 9.85901 10.7414 10.4434 10.1823C11.0168 9.61253 11.7111 9.17187 12.4774 8.89069C13.208 8.61397 14.0427 8.42473 15.2652 8.37028C16.4899 8.31583 16.8811 8.30273 20 8.30273C23.1189 8.30273 23.5101 8.31583 24.7348 8.37057C25.9573 8.42473 26.792 8.61397 27.5226 8.89039C28.2889 9.17157 28.9832 9.61253 29.5569 10.1823C30.141 10.7417 30.5933 11.4183 30.8813 12.1655C31.1655 12.8778 31.3596 13.6916 31.4154 14.8836C31.4713 16.0776 31.4844 16.4591 31.4844 19.5C31.4844 22.5409 31.4713 22.9224 31.4151 24.1164Z" fill="url(#paint2_linear)"/>
<defs>
<linearGradient id="paint0_linear" x1="20" y1="15.7676" x2="20" y2="23.2324" gradientUnits="userSpaceOnUse">
<stop stop-color="white"/>
<stop offset="1" stop-color="white" stop-opacity="0"/>
</linearGradient>
<linearGradient id="paint1_linear" x1="20.0001" y1="10.3203" x2="20.0001" y2="28.6798" gradientUnits="userSpaceOnUse">
<stop stop-color="white"/>
<stop offset="1" stop-color="white" stop-opacity="0"/>
</linearGradient>
<linearGradient id="paint2_linear" x1="20" y1="0" x2="20" y2="39" gradientUnits="userSpaceOnUse">
<stop stop-color="white"/>
<stop offset="1" stop-color="white" stop-opacity="0"/>
</linearGradient>
</defs>
</svg>
