<svg width="20" height="22" xmlns="http://www.w3.org/2000/svg">

 <g>
  <title>background</title>
  <rect fill="none" id="canvas_background" height="402" width="582" y="-1" x="-1"/>
 </g>
 <g>
  <title>Layer 1</title>
  <path id="svg_1" fill="#ff8da1" d="m19.5,0l-14,0c-0.55228,0 -1,0.44772 -1,1c0,0.55228 0.44771,1 1,1l12,0l0,18l-12,0c-0.55228,0 -1,0.4477 -1,1c0,0.5523 0.44771,1 1,1l14,0l0,-22z" clip-rule="evenodd" fill-rule="evenodd"/>
  <path id="svg_2" fill="#ff8da1" d="m12.2659,11.6638c0.1138,-0.0796 0.1138,-0.248 0,-0.3276l-4.45121,-3.11591c-0.13255,-0.09279 -0.31469,0.00204 -0.31469,0.16384l0,6.23177c0,0.1618 0.18214,0.2566 0.31469,0.1638l4.45121,-3.1159z"/>
  <path id="svg_3" fill="#ff8da1" d="m0.5,10.7c0,-0.1105 0.08954,-0.2 0.2,-0.2l9.6,0c0.1105,0 0.2,0.0895 0.2,0.2l0,1.6c0,0.1105 -0.0895,0.2 -0.2,0.2l-9.6,0c-0.11046,0 -0.2,-0.0895 -0.2,-0.2l0,-1.6z"/>
 </g>
</svg>