<svg width="80" height="53" viewBox="0 0 80 53" fill="none" xmlns="http://www.w3.org/2000/svg">
<g clip-path="url(#clip0)">
<path d="M0 11.7238V40.7615V52.3463H8.9923V40.3505H31.1165V11.7238H0ZM22.0879 32.5669H9.02855V19.5075H22.0879V32.5669Z" fill="#010203"/>
<path d="M80.0001 0H70.9655V40.3565H80.0001V0Z" fill="white"/>
<path d="M80.0001 0H70.9655V40.3565H80.0001V0Z" fill="url(#paint0_linear)"/>
<path d="M66.0704 11.6513H55.9964L51.1014 18.7158L46.2125 11.6513H36.1384L46.0674 26.0039L36.1384 40.3565H46.2125L51.1014 33.286L55.9964 40.3565H66.0704L56.1415 26.0039L66.0704 11.6513Z" fill="white"/>
<path d="M66.0704 11.6513H55.9964L51.1014 18.7158L46.2125 11.6513H36.1384L46.0674 26.0039L36.1384 40.3565H46.2125L51.1014 33.286L55.9964 40.3565H66.0704L56.1415 26.0039L66.0704 11.6513Z" fill="url(#paint1_linear)"/>
<path d="M0 11.7238V40.7615V52.3463H8.9923V40.3505H31.1165V11.7238H0ZM22.0879 32.5669H9.02855V19.5075H22.0879V32.5669Z" fill="white"/>
<path d="M0 11.7238V40.7615V52.3463H8.9923V40.3505H31.1165V11.7238H0ZM22.0879 32.5669H9.02855V19.5075H22.0879V32.5669Z" fill="url(#paint2_linear)"/>
<path d="M22.0879 19.5075H9.02856V32.5668H22.0879V19.5075Z" fill="#FF8DA1"/>
</g>
<defs>
<linearGradient id="paint0_linear" x1="75.4828" y1="0" x2="75.4828" y2="40.3565" gradientUnits="userSpaceOnUse">
<stop stop-color="white"/>
<stop offset="1" stop-color="white" stop-opacity="0"/>
</linearGradient>
<linearGradient id="paint1_linear" x1="51.1044" y1="11.6513" x2="51.1044" y2="40.3565" gradientUnits="userSpaceOnUse">
<stop stop-color="white"/>
<stop offset="1" stop-color="white" stop-opacity="0"/>
</linearGradient>
<linearGradient id="paint2_linear" x1="15.5582" y1="11.7238" x2="15.5582" y2="52.3463" gradientUnits="userSpaceOnUse">
<stop stop-color="white"/>
<stop offset="1" stop-color="white" stop-opacity="0"/>
</linearGradient>
<clipPath id="clip0">
<rect width="80" height="52.3463" fill="white"/>
</clipPath>
</defs>
</svg>
