<svg width="40" height="39" viewBox="0 0 40 39" fill="none" xmlns="http://www.w3.org/2000/svg">
<path d="M20 0C8.95599 0 0 8.73209 0 19.5C0 30.2679 8.95599 39 20 39C31.044 39 40 30.2679 40 19.5C40 8.73209 31.044 0 20 0ZM14.1882 29.4785H9.31732V15.1906H14.1882V29.4785ZM11.7529 13.2396H11.7212C10.0867 13.2396 9.02954 12.1426 9.02954 10.7715C9.02954 9.36944 10.119 8.30273 11.7853 8.30273C13.4515 8.30273 14.4769 9.36944 14.5087 10.7715C14.5087 12.1426 13.4515 13.2396 11.7529 13.2396ZM31.7517 29.4785H26.8814V21.8348C26.8814 19.9139 26.1761 18.6038 24.4138 18.6038C23.0682 18.6038 22.2668 19.4875 21.9147 20.3406C21.7859 20.6459 21.7545 21.0725 21.7545 21.4995V29.4785H16.8839C16.8839 29.4785 16.9476 16.5311 16.8839 15.1906H21.7545V17.2137C22.4017 16.2401 23.5599 14.8553 26.1441 14.8553C29.3488 14.8553 31.7517 16.8974 31.7517 21.2859V29.4785Z" fill="white"/>
<path d="M20 0C8.95599 0 0 8.73209 0 19.5C0 30.2679 8.95599 39 20 39C31.044 39 40 30.2679 40 19.5C40 8.73209 31.044 0 20 0ZM14.1882 29.4785H9.31732V15.1906H14.1882V29.4785ZM11.7529 13.2396H11.7212C10.0867 13.2396 9.02954 12.1426 9.02954 10.7715C9.02954 9.36944 10.119 8.30273 11.7853 8.30273C13.4515 8.30273 14.4769 9.36944 14.5087 10.7715C14.5087 12.1426 13.4515 13.2396 11.7529 13.2396ZM31.7517 29.4785H26.8814V21.8348C26.8814 19.9139 26.1761 18.6038 24.4138 18.6038C23.0682 18.6038 22.2668 19.4875 21.9147 20.3406C21.7859 20.6459 21.7545 21.0725 21.7545 21.4995V29.4785H16.8839C16.8839 29.4785 16.9476 16.5311 16.8839 15.1906H21.7545V17.2137C22.4017 16.2401 23.5599 14.8553 26.1441 14.8553C29.3488 14.8553 31.7517 16.8974 31.7517 21.2859V29.4785Z" fill="url(#paint0_linear)"/>
<defs>
<linearGradient id="paint0_linear" x1="20" y1="0" x2="20" y2="39" gradientUnits="userSpaceOnUse">
<stop stop-color="white"/>
<stop offset="1" stop-color="white" stop-opacity="0"/>
</linearGradient>
</defs>
</svg>
