<svg width="40" height="39" viewBox="0 0 40 39" fill="none" xmlns="http://www.w3.org/2000/svg">
<path d="M23.8281 19.5C23.8281 21.5614 22.1143 23.2324 20 23.2324C17.8857 23.2324 16.1719 21.5614 16.1719 19.5C16.1719 17.4386 17.8857 15.7676 20 15.7676C22.1143 15.7676 23.8281 17.4386 23.8281 19.5Z" fill="white"/>
<path d="M23.8281 19.5C23.8281 21.5614 22.1143 23.2324 20 23.2324C17.8857 23.2324 16.1719 21.5614 16.1719 19.5C16.1719 17.4386 17.8857 15.7676 20 15.7676C22.1143 15.7676 23.8281 17.4386 23.8281 19.5Z" fill="url(#paint0_linear)"/>
<path d="M28.9526 12.8962C28.7686 12.41 28.475 11.97 28.0936 11.6087C27.7231 11.2368 27.272 10.9506 26.7731 10.7712C26.3684 10.6179 25.7605 10.4355 24.6408 10.3858C23.4296 10.332 23.0664 10.3204 20 10.3204C16.9333 10.3204 16.5701 10.3317 15.3592 10.3855C14.2395 10.4355 13.6313 10.6179 13.2269 10.7712C12.728 10.9506 12.2766 11.2368 11.9064 11.6087C11.525 11.97 11.2314 12.4097 11.0471 12.8962C10.8899 13.2908 10.7028 13.8838 10.6519 14.9755C10.5966 16.1562 10.5847 16.5102 10.5847 19.5003C10.5847 22.49 10.5966 22.8441 10.6519 24.0251C10.7028 25.1168 10.8899 25.7095 11.0471 26.104C11.2314 26.5905 11.5247 27.0303 11.9061 27.3915C12.2766 27.7634 12.7277 28.0497 13.2266 28.2291C13.6313 28.3826 14.2395 28.565 15.3592 28.6147C16.5701 28.6686 16.933 28.6799 19.9997 28.6799C23.0667 28.6799 23.4299 28.6686 24.6405 28.6147C25.7602 28.565 26.3684 28.3826 26.7731 28.2291C27.7747 27.8524 28.5663 27.0806 28.9526 26.104C29.1098 25.7095 29.2969 25.1168 29.3481 24.0251C29.4034 22.8441 29.415 22.49 29.415 19.5003C29.415 16.5102 29.4034 16.1562 29.3481 14.9755C29.2972 13.8838 29.1101 13.2908 28.9526 12.8962ZM20 25.2498C16.7429 25.2498 14.1025 22.6757 14.1025 19.5C14.1025 16.3243 16.7429 13.7502 20 13.7502C23.2568 13.7502 25.8972 16.3243 25.8972 19.5C25.8972 22.6757 23.2568 25.2498 20 25.2498ZM26.1304 14.8666C25.3693 14.8666 24.7522 14.2649 24.7522 13.5229C24.7522 12.7808 25.3693 12.1791 26.1304 12.1791C26.8915 12.1791 27.5085 12.7808 27.5085 13.5229C27.5082 14.2649 26.8915 14.8666 26.1304 14.8666Z" fill="white"/>
<path d="M28.9526 12.8962C28.7686 12.41 28.475 11.97 28.0936 11.6087C27.7231 11.2368 27.272 10.9506 26.7731 10.7712C26.3684 10.6179 25.7605 10.4355 24.6408 10.3858C23.4296 10.332 23.0664 10.3204 20 10.3204C16.9333 10.3204 16.5701 10.3317 15.3592 10.3855C14.2395 10.4355 13.6313 10.6179 13.2269 10.7712C12.728 10.9506 12.2766 11.2368 11.9064 11.6087C11.525 11.97 11.2314 12.4097 11.0471 12.8962C10.8899 13.2908 10.7028 13.8838 10.6519 14.9755C10.5966 16.1562 10.5847 16.5102 10.5847 19.5003C10.5847 22.49 10.5966 22.8441 10.6519 24.0251C10.7028 25.1168 10.8899 25.7095 11.0471 26.104C11.2314 26.5905 11.5247 27.0303 11.9061 27.3915C12.2766 27.7634 12.7277 28.0497 13.2266 28.2291C13.6313 28.3826 14.2395 28.565 15.3592 28.6147C16.5701 28.6686 16.933 28.6799 19.9997 28.6799C23.0667 28.6799 23.4299 28.6686 24.6405 28.6147C25.7602 28.565 26.3684 28.3826 26.7731 28.2291C27.7747 27.8524 28.5663 27.0806 28.9526 26.104C29.1098 25.7095 29.2969 25.1168 29.3481 24.0251C29.4034 22.8441 29.415 22.49 29.415 19.5003C29.415 16.5102 29.4034 16.1562 29.3481 14.9755C29.2972 13.8838 29.1101 13.2908 28.9526 12.8962ZM20 25.2498C16.7429 25.2498 14.1025 22.6757 14.1025 19.5C14.1025 16.3243 16.7429 13.7502 20 13.7502C23.2568 13.7502 25.8972 16.3243 25.8972 19.5C25.8972 22.6757 23.2568 25.2498 20 25.2498ZM26.1304 14.8666C25.3693 14.8666 24.7522 14.2649 24.7522 13.5229C24.7522 12.7808 25.3693 12.1791 26.1304 12.1791C26.8915 12.1791 27.5085 12.7808 27.5085 13.5229C27.5082 14.2649 26.8915 14.8666 26.1304 14.8666Z" fill="url(#paint1_linear)"/>
<path d="M20 0C8.95599 0 0 8.73209 0 19.5C0 30.2679 8.95599 39 20 39C31.044 39 40 30.2679 40 19.5C40 8.73209 31.044 0 20 0ZM31.4151 24.1164C31.3596 25.3084 31.1652 26.1222 30.8813 26.8345C30.2847 28.3386 29.0652 29.5276 27.5226 30.1093C26.7923 30.386 25.9573 30.5753 24.7351 30.6297C23.5104 30.6842 23.1192 30.6973 20.0003 30.6973C16.8811 30.6973 16.4902 30.6842 15.2652 30.6297C14.043 30.5753 13.208 30.386 12.4777 30.1093C11.7111 29.8281 11.0172 29.3875 10.4434 28.8177C9.85931 28.2586 9.40735 27.5817 9.11896 26.8345C8.83514 26.1225 8.64075 25.3084 8.58521 24.1167C8.52875 22.9224 8.51562 22.5409 8.51562 19.5C8.51562 16.4591 8.52875 16.0776 8.5849 14.8836C8.64044 13.6916 8.83453 12.8778 9.11835 12.1655C9.40674 11.4183 9.85901 10.7414 10.4434 10.1823C11.0168 9.61253 11.7111 9.17187 12.4774 8.89069C13.208 8.61397 14.0427 8.42473 15.2652 8.37028C16.4899 8.31583 16.8811 8.30273 20 8.30273C23.1189 8.30273 23.5101 8.31583 24.7348 8.37057C25.9573 8.42473 26.792 8.61397 27.5226 8.89039C28.2889 9.17157 28.9832 9.61253 29.5569 10.1823C30.141 10.7417 30.5933 11.4183 30.8813 12.1655C31.1655 12.8778 31.3596 13.6916 31.4154 14.8836C31.4713 16.0776 31.4844 16.4591 31.4844 19.5C31.4844 22.5409 31.4713 22.9224 31.4151 24.1164Z" fill="white"/>
<path d="M20 0C8.95599 0 0 8.73209 0 19.5C0 30.2679 8.95599 39 20 39C31.044 39 40 30.2679 40 19.5C40 8.73209 31.044 0 20 0ZM31.4151 24.1164C31.3596 25.3084 31.1652 26.1222 30.8813 26.8345C30.2847 28.3386 29.0652 29.5276 27.5226 30.1093C26.7923 30.386 25.9573 30.5753 24.7351 30.6297C23.5104 30.6842 23.1192 30.6973 20.0003 30.6973C16.8811 30.6973 16.4902 30.6842 15.2652 30.6297C14.043 30.5753 13.208 30.386 12.4777 30.1093C11.7111 29.8281 11.0172 29.3875 10.4434 28.8177C9.85931 28.2586 9.40735 27.5817 9.11896 26.8345C8.83514 26.1225 8.64075 25.3084 8.58521 24.1167C8.52875 22.9224 8.51562 22.5409 8.51562 19.5C8.51562 16.4591 8.52875 16.0776 8.5849 14.8836C8.64044 13.6916 8.83453 12.8778 9.11835 12.1655C9.40674 11.4183 9.85901 10.7414 10.4434 10.1823C11.0168 9.61253 11.7111 9.17187 12.4774 8.89069C13.208 8.61397 14.0427 8.42473 15.2652 8.37028C16.4899 8.31583 16.8811 8.30273 20 8.30273C23.1189 8.30273 23.5101 8.31583 24.7348 8.37057C25.9573 8.42473 26.792 8.61397 27.5226 8.89039C28.2889 9.17157 28.9832 9.61253 29.5569 10.1823C30.141 10.7417 30.5933 11.4183 30.8813 12.1655C31.1655 12.8778 31.3596 13.6916 31.4154 14.8836C31.4713 16.0776 31.4844 16.4591 31.4844 19.5C31.4844 22.5409 31.4713 22.9224 31.4151 24.1164Z" fill="url(#paint2_linear)"/>
<defs>
<linearGradient id="paint0_linear" x1="20" y1="15.7676" x2="20" y2="23.2324" gradientUnits="userSpaceOnUse">
<stop stop-color="white"/>
<stop offset="1" stop-color="white" stop-opacity="0"/>
</linearGradient>
<linearGradient id="paint1_linear" x1="19.9998" y1="10.3204" x2="19.9998" y2="28.6799" gradientUnits="userSpaceOnUse">
<stop stop-color="white"/>
<stop offset="1" stop-color="white" stop-opacity="0"/>
</linearGradient>
<linearGradient id="paint2_linear" x1="20" y1="0" x2="20" y2="39" gradientUnits="userSpaceOnUse">
<stop stop-color="white"/>
<stop offset="1" stop-color="white" stop-opacity="0"/>
</linearGradient>
</defs>
</svg>
