<svg width="40" height="39" viewBox="0 0 40 39" fill="none" xmlns="http://www.w3.org/2000/svg">
<path d="M40 19.5C40 8.7293 31.0469 0 20 0C8.95312 0 0 8.7293 0 19.5C0 30.2707 8.95312 39 20 39C20.1172 39 20.2344 39 20.3516 38.9924V23.8189H16.0547V18.9363H20.3516V15.341C20.3516 11.1744 22.9609 8.90449 26.7734 8.90449C28.6016 8.90449 30.1719 9.03398 30.625 9.09492V13.452H28C25.9297 13.452 25.5234 14.4117 25.5234 15.8209V18.9287H30.4844L29.8359 23.8113H25.5234V38.2459C33.8828 35.9074 40 28.4045 40 19.5Z" fill="white"/>
<path d="M40 19.5C40 8.7293 31.0469 0 20 0C8.95312 0 0 8.7293 0 19.5C0 30.2707 8.95312 39 20 39C20.1172 39 20.2344 39 20.3516 38.9924V23.8189H16.0547V18.9363H20.3516V15.341C20.3516 11.1744 22.9609 8.90449 26.7734 8.90449C28.6016 8.90449 30.1719 9.03398 30.625 9.09492V13.452H28C25.9297 13.452 25.5234 14.4117 25.5234 15.8209V18.9287H30.4844L29.8359 23.8113H25.5234V38.2459C33.8828 35.9074 40 28.4045 40 19.5Z" fill="url(#paint0_linear)"/>
<defs>
<linearGradient id="paint0_linear" x1="20" y1="0" x2="20" y2="39" gradientUnits="userSpaceOnUse">
<stop stop-color="white"/>
<stop offset="1" stop-color="white" stop-opacity="0"/>
</linearGradient>
</defs>
</svg>
